<svg xmlns="http://www.w3.org/2000/svg" viewBox="0 0 150 150">
  <defs>
    <style type="text/css"><![CDATA[
      .cls-0 { fill:#E4AE59; }
      .cls-1 { fill:#0F5D4B; }
      .cls-2 { fill:#FFF4E3; }
      .cls-3 { fill:url(#SVGID_1_); }
      .cls-4 { fill:#105C4A; }
      .cls-5 { fill:#E0AA55; }
    ]]></style>
    <linearGradient id="SVGID_1_" x1="91.97" x2="105.4" y1="75.83" y2="90.39" gradientUnits="userSpaceOnUse">
      <stop stop-color="#BAB0A1" offset="0"/>
      <stop stop-color="#FFF4E3" offset="1"/>
    </linearGradient>

    <!-- Rounded app icon mask -->
    <clipPath id="icon-mask">
      <rect x="0" y="0" width="150" height="150" rx="32" ry="32"/>
    </clipPath>

    <!-- Soft shadow for card -->
    <filter id="card-shadow" x="-20%" y="-20%" width="140%" height="160%">
      <feDropShadow dx="0" dy="2.2" stdDeviation="2.6" flood-color="#000000" flood-opacity="0.12"/>
    </filter>
  </defs>

  <g clip-path="url(#icon-mask)">
    <!-- Background -->
    <rect width="150" height="150" fill="#F6E7D2"/>
    <rect class="cls-0" width="150" height="150"/>
    <polygon class="cls-1" points="150 0 150 150 0 150"/>

    <!-- Safe-area scaled artwork -->
    <g transform="translate(12 12) scale(0.84)">
      <g filter="url(#card-shadow)">
        <path class="cls-2" d="m107.4 23.8h-64.8c-8.6 0.3-17.3 7.1-17.3 17v68.2c0 8.8 7.2 17 17.3 17h64.9c8.6 0 17.1-7 17.2-16.5v-68.7c-0.1-8.7-7.5-17-17.3-17z"/>
        <path class="cls-3" d="m124.6 78.1c-0.4 12.5-4.7 18.4-11.6 24.1-5.7 4.8-15.3 12.3-23.4 17.8-5.4 3.6-12.3 5.8-20 6h37.9c8.4 0 17.1-6.6 17.1-16.7v-31.2z"/>
      </g>

      <path class="cls-5" d="m107.7 43.2c-0.8 6.5-3.8 11.6-7.2 14.9 1 4.2 2 9.6 2.3 13h4.5v-0.1 0.1h0.3-0.3 0.1-0.1 0.1-0.1 0.1-0.1 0.1-0.1 0.1-0.1 0.1-0.1 0.1-0.1 0.1-0.1 0.1l1.7-0.2 3.2 0.2c0.3-3.6 1.3-8.6 2.2-13-2.7-3.4-5.6-8.3-6.5-14.9h-0.3z"/>
      <path class="cls-4" d="m113.7 70.9-11 0.1c-1.5 0.2-2.2 2-1.4 2.9-0.4 5.7-1.6 16.6-1.6 24.5 3.1-1.1 9.9-0.9 15.3-3.1 0-5.8-1.1-18.6-1.3-21.4 0.7-0.8 0.4-2.5-0.9-2.9"/>
      <path class="cls-2" d="m108 59-0.1-15.8h-0.3l-0.3 15.8c-0.6 0.2-1.4 1-1.1 2.1 0.2 0.5 0.6 0.8 1.1 0.8v0.1l0.5-0.1c0.5 0 0.9-0.3 1-0.9 0.3-1-0.3-1.8-0.8-2z"/>
      <path class="cls-5" d="m99 81.8c-3.2 4.4-10 12.6-12.4 12.8-2.9 0.3 0.3-14.4 0.7-14.7 2.7-0.1 9.1-0.1 9.1-0.1l0.7-0.8c-1.4 0-6.5-0.1-9.4-0.1 0.4-2.4 3.2-12.9 2.9-14.8-0.2-1.1-1.2-1.5-1.9-0.7-2.7 3.3-7.2 10.7-10.3 16-2.4 0.2-6.3 0.5-8.6 1.6-0.9 0.5 0.1 1.5 1 1.2 1.9-0.7 5.2-1 6.8-1.5-2.1 3.9-5.8 9.7-8.5 13.5l0.7 1.4c3.2-3.7 6.9-10 10-15.1 1.4-0.2 3.5-0.3 5.4-0.3-1 5.2-3.5 15.9 1 16 3.7 0.2 10.3-8.5 13.4-14l-0.6-0.4zm-13.4-2.9c-1.4 0-3.1 0-4.9 0.1 2.4-4.1 5.4-9.2 7.7-12.3-0.5 2.9-2 8.2-2.8 12.2z"/>
      <path class="cls-4" d="m75.9 98.7c-2.5-0.2-3.7-1.3-4.9-4.3l-13-34.2c-0.2-0.7-0.4-0.7-0.9-0.7s-0.8 0.1-1 0.9l-13.3 33.1c-1.2 2.9-2.4 5-5.4 5.3-0.4 0-0.4 0.2-0.4 0.7 0 0.7 0.1 0.7 0.5 0.7h10.4c0.5 0 0.5-0.1 0.5-0.6 0-0.7-0.2-0.8-0.6-0.8-3.1-0.4-3.9-1.9-2.4-5.7l2.9-7.4h12.6l3.3 8.8c1.2 3.1 0 4-2.4 4.2-0.4 0-0.5 0.1-0.5 0.7 0 0.7 0.1 0.8 0.5 0.8h13.9c0.5 0 0.5-0.1 0.5-0.6 0-0.7-0.1-0.8-0.3-0.9zm-26.8-14.9 5.6-14.3 5.4 14.3h-11z"/>
      <circle class="cls-2" cx="107.3" cy="60.5" r="1.3"/>
    </g>
  </g>
</svg>
